# xmcd
#
# Track frame offsets:
#	150
#	13367
#	26815
#	40620
#	54137
#	66767
#	79590
#	92715
#	105645
#	121252
#	135025
#	149582
#	162292
#	173195
#	183235
#
# Disc length: 2614 seconds
#
# Revision: 1
# Processed by: cddbd v1.5.2PL0 Copyright (c) Steve Scherf et al.
# Submitted via: audiograbber 1.83.01
#
DISCID=bc0a340f
DTITLE=Various Artist - Sound Choice 8428
DYEAR=1900
DGENRE=
TTITLE0=Hank Williams - Take These Chains From My Heart
TTITLE1=Hank Thompson - Wild Side Of Life, The
TTITLE2=Porter Wagoner - A Satisfied Mind
TTITLE3=Glen Campbell - I Wanna Live
TTITLE4=Faron Young - Country Girl
TTITLE5=Wilburn Brothers, The - Hurt Her Once For Me
TTITLE6=Jack Greene - There Goes My Everything
TTITLE7=Jerry Lee Lewis - What's Made Milwaukee Famous
TTITLE8=Tom T. Hall - A Week In The County Jail
TTITLE9=Johnny Cash - Understand Your Man
TTITLE10=Bobby Bare - Four Strong Winds
TTITLE11=Ernest Tubb - Thanks A Lot
TTITLE12=George Jones - Race Is On, The
TTITLE13=Busk Owens - Love's Gonna Live Here
TTITLE14=Wynn Stewart - It's Such A Pretty World
EXTD=
EXTT0=
EXTT1=
EXTT2=
EXTT3=
EXTT4=
EXTT5=
EXTT6=
EXTT7=
EXTT8=
EXTT9=
EXTT10=
EXTT11=
EXTT12=
EXTT13=
EXTT14=
PLAYORDER=
